<svg xmlns="http://www.w3.org/2000/svg" version="1.1" xmlns:xlink="http://www.w3.org/1999/xlink" xmlns:svgjs="http://svgjs.dev/svgjs" width="1000" height="1125" viewBox="0 0 1000 1125"><g transform="matrix(1,0,0,1,0,0)"><svg viewBox="0 0 320 360" data-background-color="#fefefe" preserveAspectRatio="xMidYMid meet" height="1125" width="1000" xmlns="http://www.w3.org/2000/svg" xmlns:xlink="http://www.w3.org/1999/xlink"><g id="tight-bounds" transform="matrix(1,0,0,1,0,0)"><svg viewBox="0 0 320 360" height="360" width="320"><g><svg></svg></g><g><svg viewBox="0 0 320 360" height="360" width="320"><g><path xmlns="http://www.w3.org/2000/svg" d="M219.58 41.008c0.707 0 6.365 2.829 9.547 3.89-1.061 0.354-3.536-0.707-6.365-1.768 0.707 0 2.122 0.354 3.536 1.06-0.707-0.707-6.011-2.475-6.718-3.182M166.895 30.047c1.061-0.354 13.436 1.414 19.094 1.768 0.354-0.354-0.707-0.354-2.122-0.707 1.768-0.354 5.304 0.707 7.779 1.06-7.425 0.354-15.558-1.768-22.629-1.06-2.475 0-0.707-0.707-2.122-1.061M156.641 30.047c6.365 0 11.315 0 2.121 0.707-1.061-0.354-2.475-0.354-2.121-0.707M256.707 59.395c0.707 0 3.536 3.182 4.95 4.243-0.354 0.354-3.182-2.475-4.596-3.536 0.354 0.354 0 0-0.354-0.707M249.635 54.798c-2.829-2.475-3.889-2.475-4.243-3.889 2.475 1.414 4.243 2.829 4.243 3.889M204.022 32.522c0.354-0.354 1.061 0.354 2.829 0.707-2.122-0.354-1.768 0-1.061 0.707-2.475-0.354-3.182-0.707-2.475-1.414 1.414 0.707 1.768 0.354 0.707 0M103.602 36.765c0-0.354 1.414-1.061 2.475-1.414-1.061 0.707-0.707 1.061 1.061 0.353 0 0.354-2.122 1.061-3.536 1.768 0.707-0.354 1.414-1.414 0-0.707M211.094 28.986c-1.061 0.354-4.95-1.768-8.84-2.475-2.122-0.707 8.486 1.768 8.84 2.475M2.475 203.66c2.122 8.84 0.707 8.486 0 0M2.829 150.621c0.354-1.414 0.707-5.304 1.06-4.95-1.061 8.486-2.829 12.376-3.182 18.74 1.061-5.657-0.354 3.182-0.707 5.304 0.354 2.829 0.354-1.768 1.061-1.06 0.707 1.061-1.414 15.912-0.707 7.779-0.707 7.425 0 15.558 1.414 17.679-1.768 11.315 7.072 36.773 8.84 42.077 0.354 0.354 0-1.768 0.707-0.353 0.707 4.597 3.889 7.779 4.95 12.729 1.061 1.414 5.304 9.193 6.011 10.962 1.414 2.829 2.122 2.475 3.536 5.303 4.243 8.133 10.961 15.912 17.326 23.337 20.508 24.044 51.978 43.845 86.984 50.918 35.006 7.425 71.779 2.122 100.419-11.669 1.768-1.061 1.414-1.414 3.536-2.122 9.901-3.182 21.923-13.436 28.641-17.326 3.182-3.536 11.669-9.547 12.73-13.082 6.011-4.95 12.022-13.083 15.204-18.387 1.768-2.829 3.182-2.829 3.889-4.597-0.354 0 5.657-7.425 7.426-11.668-0.707 0-1.768 2.122-1.768 0 12.729-24.398 19.801-57.282 15.911-79.912 0.707 27.934-6.365 59.05-19.801 78.851-6.011 12.729-18.387 26.519-29.701 36.42-1.768 1.768-3.536 3.889-5.658 5.304-6.718 5.657-14.144 10.254-21.922 14.497-18.387 10.254-38.895 19.094-62.94 19.447 41.37-3.536 78.497-24.398 99.006-49.856-15.558 15.204-22.276 21.215-39.602 30.055-1.414 2.475-13.083 7.425-20.862 9.547 4.597-2.122 14.144-5.657 17.326-8.486-25.812 12.376-54.453 19.448-81.326 15.558 10.254 0 24.751 0.354 38.541-2.121 2.122-0.707 3.182-1.414 5.658-1.768 26.873-6.011 52.685-19.094 71.072-37.481-10.608 9.547-26.519 20.862-36.774 24.398 9.547-5.304 26.873-15.558 32.53-23.337-11.315 11.315-32.53 22.63-45.966 27.58-2.122 0.354 1.414-1.414-2.122 0-4.243 1.061-2.475 1.061-3.536 1.768-16.265 4.597-35.006 8.486-50.563 7.072-2.829-0.354-3.889-1.061-6.365-1.061-2.829-0.354-5.304-0.354-8.486-0.354-12.376-1.414-25.812-6.365-35.713-10.607-5.304-2.475-10.608-4.243-15.912-7.426-4.243-2.475-7.779-5.304-11.314-8.132-13.436-9.901-24.751-19.801-35.36-33.945-19.094-26.519-28.994-59.757-27.58-92.641 1.414-32.884 14.497-65.061 35.359-88.752-1.061 1.061 1.414-2.475 3.536-4.596 0 0.707-0.354 1.768 2.122-0.707 2.122-2.475-0.707-0.707 0.353-2.122 21.923-24.044 60.111-43.492 99.36-44.199 1.414-1.061 3.889-2.475 6.718-1.768 0 0.354-1.768 0.354-1.768 0.354 3.889-0.354 7.425-0.354 9.193 0.353 0.354-0.354-1.414-0.707 0-0.707 2.475 0.707 3.182 0 4.597 0.707-1.061 0-2.122 0-2.829 0.354 8.84 0 14.497 2.122 23.337 2.829-4.597-1.061-5.657-1.061-9.193-2.122 3.889 0.707 5.657 1.414 7.425 1.061-0.707 0-0.354-1.061 0.354-0.707 7.072 1.768 7.779 2.475 15.204 4.95 0.707-0.707-3.182-1.061-4.243-2.122 7.072 2.475 13.436 4.243 17.68 7.072-1.414-1.061-5.657-2.475-8.84-3.889-0.354 0.354 1.061 0.707 1.414 1.414-3.536-1.768-8.486-3.536-13.436-4.243 4.243 1.061 7.072 2.475 8.84 3.182-3.889-0.707-8.84-3.182-14.498-4.243 9.193 2.829 26.519 9.193 37.127 14.851-3.889-2.475-8.486-4.243-10.961-5.657 2.122 0.354 4.597 1.768 4.597 1.06 2.475 1.061 5.657 3.536 7.425 3.89-3.182-2.122-9.547-5.304-11.668-6.365 26.519 12.022 50.21 32.177 65.414 57.989 1.414 2.475 3.536 8.133 5.304 8.84-0.354-1.768-1.768-2.829-3.182-5.657 0.707 0 0.707-1.061 0-2.122-1.414-1.768 0 1.414-1.415-0.354-6.365-11.669-14.144-21.923-26.165-33.237 6.718 6.365 1.768 1.768 0.353-0.354 9.193 8.133 19.801 21.923 24.398 28.995-0.707-1.061-1.061-1.768-0.707-1.768 8.486 14.497 13.79 27.58 19.094 46.32 0.354 0.354 0-1.414 0.707-0.353 3.536 14.851 4.597 27.227 4.243 38.541 2.829-19.094-3.536-48.796-14.851-72.133-1.414-2.829-1.414-0.707-2.829-3.889 0-1.061-1.061-3.182-1.768-4.597-14.144-23.337-31.47-39.956-51.978-53.038 1.414 0.707 4.243 2.829 4.244 2.475-38.188-25.105-82.387-28.641-118.807-20.862-2.475 1.061-3.536 2.122-6.365 3.536 5.304-1.768 8.486-2.122 13.437-3.183 1.061-1.061-4.597 0.354-2.122-0.707 0.354 0.354 4.95-0.707 6.011-0.353 0 0.354-1.414 0.707-1.768 1.06 11.669-2.475 23.691-2.829 33.945-2.121-6.011 0.354-16.972-0.707-20.508 1.061 3.536-0.354 8.486-0.707 11.668-0.354-4.243 0-12.022 0.354-15.558 0.707-0.354-0.354 5.657-1.061 1.768-1.06-1.768 0.354-4.597 0.354-5.657 1.414-30.409 2.829-60.111 18.74-80.973 37.481-4.243 3.536-9.193 7.425-12.375 11.314-7.779 8.84-12.729 17.68-18.387 25.459 3.536-7.425 11.315-18.74 20.508-28.287 9.193-9.547 19.094-17.68 24.398-21.923 0 1.414 8.486-5.304 11.669-7.425-2.122 1.768 1.414-0.707 2.121-0.354 11.315-6.718 20.508-9.193 30.763-13.083-2.475 0.707-4.597 1.414-4.951 1.061 2.475-0.707 3.889-1.414 3.536-1.768-9.901 2.829-25.459 9.547-37.834 16.972 22.276-15.204 50.564-24.398 78.497-24.751 27.934-0.707 55.16 6.365 76.729 17.68 14.497 6.365 28.287 18.033 39.249 29.348 3.182 2.829 0.707-0.707 5.304 4.243-1.414-0.707-2.475-1.414-0.707 0.707 2.829 3.182-0.707-2.475 3.889 3.182-0.354 0-1.768-1.768-1.768-1.061 12.376 10.961 21.923 30.762 27.58 43.846-1.414-5.304-4.95-12.729-7.779-18.033 8.486 15.558 11.315 24.751 14.851 38.541 1.414 1.061-0.707-4.95 0.707-2.121 0.354 2.122 0.707 8.84 2.122 9.9-1.061-6.718-2.829-14.851-4.243-16.265 1.061 0.707-1.768-8.133-3.536-10.254-0.707-5.657-5.657-15.558-9.901-22.984-15.204-29.702-42.431-54.099-72.839-67.536 0-0.707-1.768-1.414-2.476-2.121-30.055-12.729-66.122-16.265-100.773-8.133-35.006 8.486-67.889 28.641-91.227 57.636 1.061-3.536 9.901-10.254 10.255-13.083-10.254 10.961-21.215 25.459-28.641 41.016-7.779 15.558-12.022 31.47-13.79 43.138" fill="#7a26c1" fill-rule="nonzero" stroke="none" stroke-width="1" stroke-linecap="butt" stroke-linejoin="miter" stroke-miterlimit="10" stroke-dasharray="" stroke-dashoffset="0" font-family="none" font-weight="none" font-size="none" text-anchor="none" style="mix-blend-mode: normal" data-fill-palette-color="tertiary"></path></g><g transform="matrix(1,0,0,1,48,141.2916488222698)"><svg viewBox="0 0 224 77.41670235546039" height="77.41670235546039" width="224"><g><svg viewBox="0 0 224 77.41670235546039" height="77.41670235546039" width="224"><g><svg viewBox="0 0 224 77.41670235546039" height="77.41670235546039" width="224"><g><svg viewBox="0 0 224 77.41670235546039" height="77.41670235546039" width="224"><g><svg viewBox="0 0 224 77.41670235546039" height="77.41670235546039" width="224"><g><svg viewBox="0 0 224 77.41670235546039" height="77.41670235546039" width="224"><g transform="matrix(1,0,0,1,0,0)"><svg width="224" viewBox="0.20000000298023224 -36 116.74000549316406 40.349998474121094" height="77.41670235546039" data-palette-color="#7a26c1"><path d="M11.65 4.35L11.65 4.35Q8.75 4.35 6.13 3.35 3.5 2.35 1.85 0.3 0.2-1.75 0.2-4.8L0.2-4.8Q0.2-7.5 1.4-9.03 2.6-10.55 4.4-11.15 6.2-11.75 7.9-11.75L7.9-11.75Q6.3-10.05 5.48-8.25 4.65-6.45 4.65-4.8L4.65-4.8Q4.65-3.1 5.53-1.63 6.4-0.15 8.15 0.78 9.9 1.7 12.5 1.7L12.5 1.7Q14.75 1.7 16.88 0.95 19 0.2 20.38-1.3 21.75-2.8 21.75-5.05L21.75-5.05Q21.75-7.1 20.58-8.58 19.4-10.05 17.55-11.23 15.7-12.4 13.65-13.48 11.6-14.55 9.75-15.8 7.9-17.05 6.73-18.7 5.55-20.35 5.55-22.65L5.55-22.65Q5.55-24.7 6.58-27.03 7.6-29.35 9.5-31.4 11.4-33.45 14.1-34.73 16.8-36 20.1-36L20.1-36Q23.55-36 24.95-34.55 26.35-33.1 26.35-30.75L26.35-30.75Q26.35-28.9 25.7-26.8 25.05-24.7 24.13-22.8 23.2-20.9 22.35-19.55L22.35-19.55Q21.25-19.8 20.7-20.43 20.15-21.05 20.15-22.1L20.15-22.1Q20.15-23.15 20.58-24.45 21-25.75 21.58-27.15 22.15-28.55 22.58-29.88 23-31.2 23-32.2L23-32.2Q23-33.1 22.48-33.6 21.95-34.1 20.35-34.1L20.35-34.1Q17.95-34.1 15.95-33.05 13.95-32 12.48-30.4 11-28.8 10.2-27.03 9.4-25.25 9.4-23.8L9.4-23.8Q9.4-22 10.55-20.73 11.7-19.45 13.53-18.4 15.35-17.35 17.38-16.3 19.4-15.25 21.23-13.95 23.05-12.65 24.2-10.85 25.35-9.05 25.35-6.45L25.35-6.45Q25.35-3.85 24.18-1.85 23 0.15 21 1.53 19 2.9 16.57 3.63 14.15 4.35 11.65 4.35ZM32.65 1.5L32.65 1.5Q30.3 1.5 29.37-0.08 28.45-1.65 28.45-3.8L28.45-3.8Q28.45-6.25 29.35-9.55 30.25-12.85 31.72-16.48 33.2-20.1 34.97-23.58 36.75-27.05 38.55-29.85 40.35-32.65 41.87-34.33 43.4-36 44.35-36L44.35-36Q45-36 45.45-35.33 45.9-34.65 46.17-33.73 46.45-32.8 46.45-32L46.45-32Q46.45-30.65 45.77-28.48 45.1-26.3 43.87-23.7 42.65-21.1 40.97-18.38 39.3-15.65 37.27-13.2 35.25-10.75 32.95-8.95L32.95-8.95Q32.75-7.7 32.57-6.48 32.4-5.25 32.4-4.25L32.4-4.25Q32.4-2.45 33-1.63 33.6-0.8 34.55-0.8L34.55-0.8Q35.8-0.8 37.12-1.98 38.45-3.15 39.67-4.98 40.9-6.8 41.8-8.75L41.8-8.75 43-8.1Q40.85-3.65 38.2-1.07 35.55 1.5 32.65 1.5ZM33.85-12.05L33.85-12.05Q35.55-13.9 37.07-16.07 38.6-18.25 39.87-20.5 41.15-22.75 42.1-24.85 43.05-26.95 43.57-28.63 44.1-30.3 44.15-31.3L44.15-31.3Q44.15-31.35 44.15-31.38 44.15-31.4 44.15-31.45L44.15-31.45Q43.75-31.45 42.87-30.33 42-29.2 40.8-27.25 39.6-25.3 38.32-22.8 37.05-20.3 35.87-17.53 34.7-14.75 33.85-12.05ZM43.39 2.35L43.39 2.35Q41.74 2.35 40.52 1.25 39.3 0.15 39.3-2.05L39.3-2.05Q39.3-3.8 40.09-5.85 40.89-7.9 42.3-9.9 43.7-11.9 45.49-13.53 47.3-15.15 49.34-16.15 51.39-17.15 53.45-17.15L53.45-17.15Q55.59-17.15 57.09-16.05 58.59-14.95 58.59-13.15L58.59-13.15Q58.59-11.8 57.64-11.2 56.7-10.6 55.39-10.85L55.39-10.85Q55.49-11.3 55.57-11.75 55.64-12.2 55.64-12.7L55.64-12.7Q55.64-13.7 55.24-14.5 54.84-15.3 53.55-15.3L53.55-15.3Q52.14-15.3 50.7-14.35 49.24-13.4 47.92-11.88 46.59-10.35 45.55-8.53 44.49-6.7 43.89-4.95 43.3-3.2 43.3-1.8L43.3-1.8Q43.3-0.2 44.45-0.2L44.45-0.2Q45.59-0.2 46.99-1.33 48.39-2.45 49.82-4.15 51.24-5.85 52.55-7.63 53.84-9.4 54.8-10.65L54.8-10.65Q54.95-10.9 55.2-10.9L55.2-10.9Q55.39-10.85 55.97-10.68 56.55-10.5 57.05-10.15 57.55-9.8 57.55-9.25L57.55-9.25Q57.55-8.75 57.12-7.98 56.7-7.2 56.12-6.28 55.55-5.35 55.12-4.42 54.7-3.5 54.7-2.65L54.7-2.65Q54.7-2 55.05-1.43 55.39-0.85 56.2-0.85L56.2-0.85Q57.39-0.85 59.57-2.63 61.75-4.4 64-8.65L64-8.65 64.94-7.7Q63.75-5 62.07-2.93 60.39-0.85 58.55 0.33 56.7 1.5 54.8 1.5L54.8 1.5Q52.74 1.5 51.74 0.2 50.74-1.1 50.64-2.6L50.64-2.6Q50.64-2.7 50.64-2.75 50.64-2.8 50.64-2.85L50.64-2.85Q48.64-0.45 46.97 0.95 45.3 2.35 43.39 2.35ZM68.64 2.55L68.64 2.55Q66.14 2.55 64.62 1.53 63.09 0.5 62.44-1.07 61.79-2.65 61.79-4.3L61.79-4.3Q61.79-5.75 62.19-6.55 62.59-7.35 63.19-7.73 63.79-8.1 64.32-8.3 64.84-8.5 65.09-8.75L65.09-8.75Q66.34-10.05 67.67-11.78 68.99-13.5 69.94-15.6L69.94-15.6 69.94-16.1Q69.94-18.1 70.62-18.93 71.29-19.75 72.19-19.75L72.19-19.75Q72.79-19.75 73.07-19.45 73.34-19.15 73.39-18.75L73.39-18.75Q73.39-18.45 73.27-18.05 73.14-17.65 73.14-16.95L73.14-16.95Q73.14-15.45 73.87-13.53 74.59-11.6 75.32-9.45 76.04-7.3 76.04-5.05L76.04-5.05Q76.04-4.45 75.99-3.95 75.94-3.45 75.84-3L75.84-3Q77.39-3.4 78.89-4.73 80.39-6.05 81.74-8.65L81.74-8.65 82.34-8.2Q81.39-5.35 79.59-3.63 77.79-1.9 75.39-1.5L75.39-1.5Q74.59 0.55 72.77 1.55 70.94 2.55 68.64 2.55ZM68.29 0.35L68.29 0.35Q69.29 0.35 70.14-0.15 70.99-0.65 71.49-1.6L71.49-1.6Q69.44-2.05 67.79-3.2 66.14-4.35 65.24-5.55L65.24-5.55Q64.54-5.4 64.54-4.2L64.54-4.2Q64.54-2.55 65.49-1.1 66.44 0.35 68.29 0.35ZM71.89-3.1L71.89-3.1Q71.99-3.45 72.02-3.93 72.04-4.4 72.04-4.65L72.04-4.65Q71.99-6.9 71.44-9.1 70.89-11.3 70.34-13.6L70.34-13.6Q69.44-12.05 68.24-10.25 67.04-8.45 65.99-7.35L65.99-7.35Q66.79-6 68.34-4.8 69.89-3.6 71.89-3.1ZM84.64 1.5L84.64 1.5Q82.29 1.5 81.37-0.08 80.44-1.65 80.44-3.8L80.44-3.8Q80.44-6.25 81.34-9.55 82.24-12.85 83.72-16.48 85.19-20.1 86.97-23.58 88.74-27.05 90.54-29.85 92.34-32.65 93.87-34.33 95.39-36 96.34-36L96.34-36Q96.99-36 97.44-35.33 97.89-34.65 98.17-33.73 98.44-32.8 98.44-32L98.44-32Q98.44-30.65 97.77-28.48 97.09-26.3 95.87-23.7 94.64-21.1 92.97-18.38 91.29-15.65 89.27-13.2 87.24-10.75 84.94-8.95L84.94-8.95Q84.74-7.7 84.56-6.48 84.39-5.25 84.39-4.25L84.39-4.25Q84.39-2.45 84.99-1.63 85.59-0.8 86.54-0.8L86.54-0.8Q87.79-0.8 89.12-1.98 90.44-3.15 91.67-4.98 92.89-6.8 93.79-8.75L93.79-8.75 94.99-8.1Q92.84-3.65 90.19-1.07 87.54 1.5 84.64 1.5ZM85.84-12.05L85.84-12.05Q87.54-13.9 89.06-16.07 90.59-18.25 91.87-20.5 93.14-22.75 94.09-24.85 95.04-26.95 95.56-28.63 96.09-30.3 96.14-31.3L96.14-31.3Q96.14-31.35 96.14-31.38 96.14-31.4 96.14-31.45L96.14-31.45Q95.74-31.45 94.87-30.33 93.99-29.2 92.79-27.25 91.59-25.3 90.31-22.8 89.04-20.3 87.87-17.53 86.69-14.75 85.84-12.05ZM95.39 2.35L95.39 2.35Q93.74 2.35 92.51 1.25 91.29 0.15 91.29-2.05L91.29-2.05Q91.29-3.8 92.09-5.85 92.89-7.9 94.29-9.9 95.69-11.9 97.49-13.53 99.29-15.15 101.34-16.15 103.39-17.15 105.44-17.15L105.44-17.15Q107.59-17.15 109.09-16.05 110.59-14.95 110.59-13.15L110.59-13.15Q110.59-11.8 109.64-11.2 108.69-10.6 107.39-10.85L107.39-10.85Q107.49-11.3 107.56-11.75 107.64-12.2 107.64-12.7L107.64-12.7Q107.64-13.7 107.24-14.5 106.84-15.3 105.54-15.3L105.54-15.3Q104.14-15.3 102.69-14.35 101.24-13.4 99.91-11.88 98.59-10.35 97.54-8.53 96.49-6.7 95.89-4.95 95.29-3.2 95.29-1.8L95.29-1.8Q95.29-0.2 96.44-0.2L96.44-0.2Q97.59-0.2 98.99-1.33 100.39-2.45 101.81-4.15 103.24-5.85 104.54-7.63 105.84-9.4 106.79-10.65L106.79-10.65Q106.94-10.9 107.19-10.9L107.19-10.9Q107.39-10.85 107.96-10.68 108.54-10.5 109.04-10.15 109.54-9.8 109.54-9.25L109.54-9.25Q109.54-8.75 109.11-7.98 108.69-7.2 108.11-6.28 107.54-5.35 107.11-4.42 106.69-3.5 106.69-2.65L106.69-2.65Q106.69-2 107.04-1.43 107.39-0.85 108.19-0.85L108.19-0.85Q109.39-0.85 111.56-2.63 113.74-4.4 115.99-8.65L115.99-8.65 116.94-7.7Q115.74-5 114.06-2.93 112.39-0.85 110.54 0.33 108.69 1.5 106.79 1.5L106.79 1.5Q104.74 1.5 103.74 0.2 102.74-1.1 102.64-2.6L102.64-2.6Q102.64-2.7 102.64-2.75 102.64-2.8 102.64-2.85L102.64-2.85Q100.64-0.45 98.96 0.95 97.29 2.35 95.39 2.35Z" opacity="1" transform="matrix(1,0,0,1,0,0)" fill="#7a26c1" class="undefined-text-0" data-fill-palette-color="primary" id="text-0"></path></svg></g></svg></g></svg></g></svg></g><g></g></svg></g></svg></g></svg></g></svg></g><defs></defs></svg><rect width="320" height="360" fill="none" stroke="none" visibility="hidden"></rect></g></svg></g></svg>